<?xml version="1.0" standalone="no"?>
<!DOCTYPE svg PUBLIC "-//W3C//DTD SVG 20010904//EN"
 "http://www.w3.org/TR/2001/REC-SVG-20010904/DTD/svg10.dtd">
<svg version="1.0" xmlns="http://www.w3.org/2000/svg"
 width="512.000000pt" height="512.000000pt" viewBox="0 0 512.000000 512.000000"
 preserveAspectRatio="xMidYMid meet">
<metadata>
Created by potrace 1.11, written by Peter Selinger 2001-2013
</metadata>
<g transform="translate(0.000000,512.000000) scale(0.100000,-0.100000)"
fill="#000000" stroke="none">
<path d="M2502 5110 c-40 -17 -52 -66 -52 -220 l0 -140 -557 0 c-511 0 -561
-1 -593 -18 -65 -32 -63 -119 5 -147 19 -8 60 -15 91 -15 73 0 232 -33 312
-64 330 -130 569 -395 659 -734 23 -86 26 -116 27 -262 0 -147 -3 -175 -26
-262 -52 -190 -146 -355 -279 -488 -183 -183 -402 -285 -662 -309 -137 -13
-143 -15 -162 -52 -21 -40 -19 -64 9 -96 l24 -28 576 -3 576 -2 0 -120 0 -119
-56 -11 c-71 -15 -195 -78 -258 -132 -27 -23 -68 -68 -91 -100 l-43 -57 -39
52 c-40 54 -67 66 -119 53 -25 -7 -54 -52 -54 -83 0 -10 20 -49 45 -86 54 -84
76 -157 77 -251 0 -129 -46 -240 -138 -326 -135 -128 -332 -160 -499 -82 -180
85 -282 271 -254 466 24 172 136 307 305 367 52 18 74 20 183 15 120 -5 124
-4 147 19 32 32 33 87 1 119 -18 18 -43 26 -107 35 -270 40 -537 -106 -651
-355 -25 -55 -35 -88 -53 -175 -6 -26 -7 -27 -48 -18 -77 17 -164 66 -214 122
-88 97 -114 189 -114 405 0 137 -10 175 -63 231 -71 74 -180 92 -275 45 -95
-47 -140 -146 -129 -283 4 -55 9 -69 32 -88 47 -41 106 -26 131 32 8 19 14 63
14 98 0 49 4 68 18 80 23 21 52 22 78 3 18 -14 19 -35 24 -583 5 -563 5 -569
28 -633 63 -175 174 -306 322 -379 131 -64 179 -71 527 -71 l302 0 -106 -172
c-120 -192 -129 -222 -79 -264 34 -30 78 -31 109 -1 13 12 82 115 152 230
l127 207 464 0 464 0 -66 -107 c-37 -60 -84 -136 -106 -171 -25 -41 -38 -74
-38 -98 0 -66 73 -107 126 -70 11 8 80 112 154 230 l133 216 691 0 c570 0 703
3 761 15 271 57 484 248 573 513 24 70 26 92 26 237 1 134 -2 165 -17 192 -27
51 -92 61 -134 21 -24 -23 -25 -24 -18 -143 9 -151 -4 -224 -57 -335 -31 -63
-58 -102 -107 -151 -75 -75 -131 -110 -234 -148 l-72 -26 -654 -3 -654 -3 15
23 c8 13 57 91 108 173 50 83 96 154 100 159 5 4 37 -15 72 -43 162 -133 361
-180 552 -131 293 75 490 341 473 638 l-5 84 67 66 c114 113 169 256 158 407
-3 39 -33 187 -66 329 -34 143 -61 265 -61 271 0 7 20 20 44 29 56 22 131 87
157 137 11 22 22 39 24 39 15 0 217 -125 254 -156 35 -30 101 -124 101 -145 0
-3 -24 -4 -52 -1 -116 9 -239 -76 -272 -189 -9 -29 -16 -64 -16 -77 0 -52 82
-617 92 -636 17 -32 40 -45 76 -46 42 0 82 38 82 77 0 15 -18 159 -40 318 -38
281 -39 291 -22 325 24 49 76 68 125 46 36 -18 48 -36 66 -104 23 -82 115 -95
154 -21 16 29 18 50 13 144 -9 187 -64 314 -187 429 -82 77 -388 256 -438 256
-43 0 -81 -38 -81 -81 0 -44 -36 -114 -70 -139 -16 -11 -55 -25 -87 -31 -142
-26 -141 -15 -48 -410 42 -178 79 -344 82 -369 8 -65 -20 -165 -65 -229 -20
-30 -42 -56 -48 -58 -5 -2 -20 14 -32 35 -12 21 -46 64 -75 94 -242 252 -638
258 -883 14 -39 -39 -78 -82 -87 -96 l-17 -25 -27 35 c-96 124 -242 224 -368
250 l-55 11 0 120 0 119 118 0 c397 0 697 116 946 366 476 475 485 1237 21
1723 -167 175 -365 291 -600 350 -89 23 -263 41 -397 41 l-88 0 0 140 c0 158
-11 203 -55 220 -31 12 -42 12 -73 0z m575 -567 c169 -49 286 -107 410 -205
351 -277 488 -771 333 -1196 -109 -296 -357 -538 -655 -640 -153 -52 -179 -54
-697 -59 -269 -3 -488 -1 -488 4 1 4 29 26 63 48 81 53 241 212 306 305 149
212 221 444 221 710 0 258 -69 482 -215 699 -63 93 -211 244 -307 311 l-73 51
515 -4 c483 -3 519 -5 587 -24z m-347 -2724 c284 -136 348 -501 126 -723 -213
-213 -578 -156 -715 111 -128 253 -2 548 274 639 25 9 77 13 140 11 91 -2 106
-5 175 -38z m1073 4 c284 -134 350 -502 131 -725 -174 -177 -456 -177 -633 0
-93 92 -131 185 -132 317 0 192 118 357 304 425 41 16 74 19 157 17 94 -2 112
-6 173 -34z m-3298 -383 c50 -55 198 -123 296 -136 l49 -7 16 -56 c64 -222
241 -386 473 -437 91 -20 217 -15 309 14 35 11 62 17 60 13 -2 -4 -30 -51 -63
-104 l-60 -97 -325 0 c-179 0 -354 5 -389 10 -199 28 -362 193 -391 395 -12
85 -13 425 -2 425 5 0 17 -9 27 -20z m1610 -478 c111 -104 232 -157 382 -169
115 -8 262 23 339 73 13 9 26 15 29 13 2 -2 -31 -59 -73 -127 l-77 -122 -463
0 -463 0 23 38 c81 134 224 362 227 362 2 0 36 -31 76 -68z"/>
<path d="M2482 1720 c-247 -50 -336 -357 -155 -532 59 -58 124 -83 213 -82
125 0 223 61 282 174 33 63 33 205 1 266 -70 132 -205 201 -341 174z m133
-190 c117 -72 63 -254 -75 -254 -138 0 -191 178 -75 254 40 26 108 26 150 0z"/>
<path d="M3550 1716 c-72 -16 -106 -35 -156 -88 -52 -53 -69 -87 -83 -161 -26
-140 45 -273 178 -336 73 -34 182 -36 253 -4 60 27 127 95 158 158 32 67 35
181 5 240 -35 70 -97 84 -146 32 -18 -19 -20 -29 -14 -72 17 -112 -1 -162 -72
-196 -57 -28 -106 -18 -155 31 -34 33 -38 43 -38 86 0 85 45 133 137 149 76
12 108 86 61 139 -29 32 -60 38 -128 22z"/>
<path d="M1409 1720 c-167 -28 -282 -196 -249 -363 42 -217 282 -322 470 -206
167 103 194 344 54 482 -50 50 -95 72 -169 86 -32 6 -59 10 -59 10 -1 -1 -22
-5 -47 -9z m122 -185 c43 -23 69 -71 69 -127 0 -39 -6 -54 -31 -82 -58 -67
-149 -67 -208 -1 -31 36 -36 53 -32 110 7 89 118 143 202 100z"/>
</g>
</svg>
